/* XPM */
static char *brush[]={
"22 22 3 1",
"a c #000000",
"# c #303030",
". c #c0c0c0",
"......................",
"......................",
"......................",
"......................",
"......................",
"..########.aa.aa.aa...",
"..#......#.#......a...",
"..#......#............",
"..#......#.#......a...",
"..#......#.#......a...",
"..#......#............",
"..#......#.#......a...",
"..#......#.#......a...",
"..#......#............",
"..#......#.#......a...",
"..########.aa.aa.aa...",
"......................",
"......................",
"......................",
"......................",
"......................",
"......................"};
