/* XPM */
static char *aim[]={
"22 22 4 1",
"b c #000000",
"# c #303030",
". c #58a8ff",
"a c #ffffff",
"......................",
"......................",
"......................",
"......................",
"..........#...........",
"..........#...........",
"........aa#aa.........",
"..........b...........",
"......a...#...a.......",
"......a.......a.......",
"....bbbb#.a.#bbbb.....",
"......a.......a.......",
"......a...#...a.......",
"..........b...........",
"........aabaa.........",
"..........b...........",
"..........b...........",
"......................",
"......................",
"......................",
"......................",
"......................"};
