/* XPM */
static char *paintbrush[]={
"22 22 4 1",
"# c #000000",
"b c #a0a0a4",
"a c #dcdcdc",
". c #ffffff",
"......................",
"......................",
"......................",
".............#aa#b....",
".............#aa#b....",
"............#aa#bb....",
"............#aa#b.....",
"...........#aa#bb.....",
"...........#aa#b......",
"..........#aa#bb......",
"..........#aa#b.......",
".........####bb.......",
"........#aa##b........",
".......#..a##b........",
".......#.ab##b........",
"......#.ab##bb........",
"......#ab##bb.........",
".....#.b##bb..........",
"....####bbb...........",
".....bbbb.............",
"......................",
"......................"};
